<?xml version="1.0" encoding="UTF-8" standalone="no"?>
<!-- Created with Inkscape (http://www.inkscape.org/) -->

<svg
   xmlns:dc="http://purl.org/dc/elements/1.1/"
   xmlns:cc="http://creativecommons.org/ns#"
   xmlns:rdf="http://www.w3.org/1999/02/22-rdf-syntax-ns#"
   xmlns:svg="http://www.w3.org/2000/svg"
   xmlns="http://www.w3.org/2000/svg"
   xmlns:sodipodi="http://sodipodi.sourceforge.net/DTD/sodipodi-0.dtd"
   xmlns:inkscape="http://www.inkscape.org/namespaces/inkscape"
   id="svg3055"
   version="1.1"
   inkscape:version="0.91 r13725"
   width="64"
   height="64"
   sodipodi:docname="Irradiance.svg"
   inkscape:export-filename="C:\Users\ovidi\Data\Documents\Ovidio\Computacion\Lazarus\Spectral\Icons\Irradiance_16.png"
   inkscape:export-xdpi="22.5"
   inkscape:export-ydpi="22.5">
  <metadata
     id="metadata3061">
    <rdf:RDF>
      <cc:Work
         rdf:about="">
        <dc:format>image/svg+xml</dc:format>
        <dc:type
           rdf:resource="http://purl.org/dc/dcmitype/StillImage" />
        <dc:title></dc:title>
      </cc:Work>
    </rdf:RDF>
  </metadata>
  <defs
     id="defs3059" />
  <sodipodi:namedview
     pagecolor="#ffffff"
     bordercolor="#666666"
     borderopacity="1"
     objecttolerance="10"
     gridtolerance="10"
     guidetolerance="10"
     inkscape:pageopacity="0"
     inkscape:pageshadow="2"
     inkscape:window-width="1920"
     inkscape:window-height="1017"
     id="namedview3057"
     showgrid="false"
     inkscape:zoom="8.65063"
     inkscape:cx="20.659425"
     inkscape:cy="36.725274"
     inkscape:window-x="-8"
     inkscape:window-y="-8"
     inkscape:window-maximized="1"
     inkscape:current-layer="svg3055" />
  <path
     inkscape:connector-curvature="0"
     id="path3524"
     d="m 19.227481,63.819397 c -0.337001,-0.125716 -0.727815,-0.41764 -0.917738,-0.685507 -0.361561,-0.509953 -0.592614,-1.714949 -0.470333,-2.452898 0.09739,-0.587763 3.132348,-8.24332 3.45235,-8.708424 0.283045,-0.411394 0.804728,-0.853819 1.34998,-1.144883 0.349432,-0.186533 0.546538,-0.239411 0.98762,-0.264946 0.671178,-0.03886 1.108342,0.133364 1.499981,0.590906 0.489864,0.572297 0.778585,1.771884 0.629783,2.616644 -0.07127,0.404616 -2.86426,7.597089 -3.244611,8.355481 -0.218608,0.435892 -0.905927,1.114664 -1.465161,1.446942 -0.434569,0.258206 -0.565237,0.299399 -1.022962,0.32249 -0.332677,0.01679 -0.625104,-0.01096 -0.798909,-0.07581 z M 44.44321,63.602644 c -0.750275,-0.280568 -1.649253,-1.024882 -1.978512,-1.638117 -0.102464,-0.190839 -0.912886,-2.045163 -1.800934,-4.120719 -1.313204,-3.069236 -1.628375,-3.87064 -1.688249,-4.292787 -0.194557,-1.371822 0.417859,-2.768585 1.348581,-3.075751 0.462069,-0.152496 1.240611,-0.06224 1.767373,0.204884 0.566413,0.287235 1.253182,0.918025 1.500132,1.377853 0.104232,0.194088 0.920689,2.06178 1.814345,4.150426 1.800731,4.208648 1.846155,4.352159 1.691806,5.344976 -0.209494,1.347509 -0.84921,2.061917 -1.89967,2.121474 -0.300092,0.01702 -0.590522,-0.01083 -0.754872,-0.07223 z M 30.973422,50.358608 c -2.806158,-0.278676 -4.66085,-0.797429 -6.932603,-1.939034 -1.809611,-0.909369 -3.300299,-1.997683 -4.836999,-3.531373 -1.465926,-1.463052 -2.397373,-2.686049 -3.309635,-4.345566 -1.495649,-2.720774 -2.201509,-5.451829 -2.201509,-8.517909 0,-2.25931 0.354331,-4.200048 1.136866,-6.226805 1.945354,-5.038464 6.067144,-9.129719 11.095098,-11.01291 2.42488,-0.908221 5.165631,-1.292156 7.58584,-1.062647 4.526206,0.429215 8.498083,2.371972 11.747873,5.746211 2.492885,2.588355 4.139066,5.664799 4.861512,9.085389 0.330399,1.564353 0.424826,3.930274 0.221743,5.555998 -0.407875,3.265139 -1.677349,6.269368 -3.827461,9.057741 -0.263405,0.341596 -0.957865,1.100029 -1.543241,1.685407 -0.585381,0.585378 -1.343814,1.279837 -1.685411,1.543243 -2.729853,2.104989 -5.661105,3.368029 -8.877844,3.825361 -0.736635,0.104716 -2.892702,0.190673 -3.434229,0.136894 z M 2.1843563,46.864559 C 1.4394155,46.680463 0.90801815,46.307519 0.64164681,45.781861 0.47766953,45.458267 0.45621138,45.33634 0.47848587,44.854766 0.51416223,44.083438 0.76652291,43.586335 1.4843729,42.873353 L 2.0382188,42.323262 6.0399686,40.62223 c 2.793955,-1.187631 4.1392084,-1.723411 4.4571904,-1.775181 0.893851,-0.145529 2.020904,0.122179 2.57768,0.612273 0.51025,0.449139 0.637637,0.759677 0.60402,1.472427 -0.03705,0.785631 -0.283328,1.288448 -0.972611,1.985816 l -0.51148,0.51748 -3.9091769,1.668804 c -2.1500452,0.917844 -4.0725242,1.712595 -4.272174,1.766115 -0.4440442,0.119041 -1.336184,0.116395 -1.8290608,-0.0054 z m 58.5280227,-0.4626 c -0.261433,-0.03809 -8.085184,-3.18765 -8.406753,-3.384256 -0.400177,-0.244667 -1.12566,-1.067989 -1.32904,-1.508272 -0.251933,-0.545396 -0.308141,-1.279153 -0.1331,-1.737494 0.146451,-0.383476 0.650287,-0.868379 1.104662,-1.063145 0.477819,-0.204817 1.224089,-0.315613 1.816632,-0.26971 0.459835,0.03562 0.965755,0.221095 4.536331,1.663045 2.210329,0.892625 4.155364,1.716781 4.3223,1.831463 0.426148,0.29275 0.989484,0.945987 1.236037,1.43329 0.517534,1.022888 0.172462,2.24157 -0.77099,2.722882 -0.536499,0.273703 -1.642692,0.419047 -2.376079,0.312197 z M 10.04312,25.577763 C 9.6779849,25.509243 1.8820831,22.31813 1.5916384,22.1183 1.1895042,21.841621 0.67138259,21.256659 0.3848034,20.755772 0.06674051,20.199855 0.00915363,19.468445 0.24200208,18.942052 0.43982454,18.494843 0.55699043,18.3629 1.0232985,18.062219 c 0.4946606,-0.31896 1.3859301,-0.504966 2.1216316,-0.442776 0.4705672,0.03976 0.9798756,0.226305 4.5342344,1.660604 2.2022672,0.888686 4.1079955,1.67922 4.2349525,1.75674 0.377621,0.230579 1.088804,1.043419 1.31192,1.499448 0.264102,0.539805 0.323591,1.266972 0.142451,1.741279 -0.145702,0.381517 -0.649707,0.868129 -1.098327,1.06043 -0.580431,0.248801 -1.596246,0.358191 -2.227041,0.239819 z M 52.547932,25.190406 C 51.65636,25.040282 50.962522,24.612043 50.672799,24.033073 50.240907,23.17 50.549097,22.094804 51.504337,21.132089 l 0.512868,-0.516884 3.909175,-1.669325 c 2.150045,-0.918127 4.073579,-1.715254 4.274519,-1.77139 0.521174,-0.145603 1.631859,-0.08399 2.16611,0.120171 0.624959,0.238817 0.968011,0.522564 1.19656,0.989704 0.177094,0.36196 0.196167,0.469854 0.165647,0.936947 -0.04964,0.759675 -0.310311,1.268586 -1.001405,1.955033 l -0.554056,0.550331 -4.004854,1.701068 c -4.451757,1.890893 -4.594191,1.935558 -5.620969,1.762667 z M 22.533988,13.579476 C 21.820775,13.36117 20.878336,12.607842 20.547302,11.991443 20.443068,11.797358 19.626615,9.929666 18.732957,7.8410176 16.931226,3.6300324 16.887976,3.4932065 17.040294,2.4863106 17.38938,0.17870682 19.368224,-0.34761362 21.113729,1.4028873 l 0.51606,0.5175378 1.735728,4.0544672 c 1.88952,4.4137077 1.909995,4.4770397 1.791419,5.5410287 -0.103916,0.932389 -0.564989,1.699453 -1.198108,1.993208 -0.305,0.141516 -1.069085,0.179239 -1.42484,0.07036 z m 17.041811,-0.227674 c -0.611758,-0.311723 -1.035937,-1.021885 -1.197896,-2.005517 -0.149091,-0.905492 -0.0963,-1.082131 1.594111,-5.3340143 0.862781,-2.1701386 1.646383,-4.0772322 1.741342,-4.2379836 0.253301,-0.4288024 0.883949,-1.01207333 1.426004,-1.31887109 1.074414,-0.60811301 2.310225,-0.30545369 2.804789,0.68691309 0.318403,0.6388871 0.470331,1.6277047 0.34995,2.2776246 -0.121563,0.6562559 -3.184393,8.2860213 -3.497517,8.7125803 -0.308216,0.419874 -0.84385,0.862391 -1.370012,1.131845 -0.529856,0.271344 -1.408385,0.312843 -1.850771,0.08742 z"
     style="fill:#ffcc00;stroke-width:3;stroke-miterlimit:4;stroke-dasharray:none" />
</svg>
