<?xml version="1.0" encoding="UTF-8" standalone="no"?>
<!-- Creator: CorelDRAW -->

<svg
   xmlns:dc="http://purl.org/dc/elements/1.1/"
   xmlns:cc="http://creativecommons.org/ns#"
   xmlns:rdf="http://www.w3.org/1999/02/22-rdf-syntax-ns#"
   xmlns:svg="http://www.w3.org/2000/svg"
   xmlns="http://www.w3.org/2000/svg"
   xmlns:sodipodi="http://sodipodi.sourceforge.net/DTD/sodipodi-0.dtd"
   xmlns:inkscape="http://www.inkscape.org/namespaces/inkscape"
   xml:space="preserve"
   width="32"
   height="32"
   style="fill-rule:evenodd;image-rendering:optimizeQuality;shape-rendering:geometricPrecision;text-rendering:geometricPrecision"
   viewBox="0 0 355.5274 355.53458"
   id="svg21242"
   version="1.1"
   inkscape:version="0.91 r13725"
   sodipodi:docname="Scope.svg"
   inkscape:export-filename="C:\Users\ovidi\Data\Documents\Ovidio\Computacion\Lazarus\Spectral\Icons\Scope_16.png"
   inkscape:export-xdpi="45"
   inkscape:export-ydpi="45"><metadata
     id="metadata21274"><rdf:RDF><cc:Work
         rdf:about=""><dc:format>image/svg+xml</dc:format><dc:type
           rdf:resource="http://purl.org/dc/dcmitype/StillImage" /><dc:title></dc:title></cc:Work></rdf:RDF></metadata><sodipodi:namedview
     pagecolor="#ffffff"
     bordercolor="#666666"
     borderopacity="1"
     objecttolerance="10"
     gridtolerance="10"
     guidetolerance="10"
     inkscape:pageopacity="0"
     inkscape:pageshadow="2"
     inkscape:window-width="1920"
     inkscape:window-height="1017"
     id="namedview21272"
     showgrid="false"
     units="px"
     inkscape:zoom="19.446286"
     inkscape:cx="20.645277"
     inkscape:cy="16.745765"
     inkscape:window-x="-8"
     inkscape:window-y="-8"
     inkscape:window-maximized="1"
     inkscape:current-layer="svg21242" /><defs
     id="defs21244"><marker
       inkscape:stockid="Arrow2Mend"
       orient="auto"
       refY="0.0"
       refX="0.0"
       id="Arrow2Mend"
       style="overflow:visible;"
       inkscape:isstock="true"><path
         id="path8377"
         style="fill-rule:evenodd;stroke-width:0.625;stroke-linejoin:round;stroke:#000000;stroke-opacity:1;fill:#000000;fill-opacity:1"
         d="M 8.7185878,4.0337352 L -2.2072895,0.016013256 L 8.7185884,-4.0017078 C 6.9730900,-1.6296469 6.9831476,1.6157441 8.7185878,4.0337352 z "
         transform="scale(0.6) rotate(180) translate(0,0)" /></marker><marker
       inkscape:stockid="Arrow1Mend"
       orient="auto"
       refY="0.0"
       refX="0.0"
       id="Arrow1Mend"
       style="overflow:visible;"
       inkscape:isstock="true"><path
         id="path8359"
         d="M 0.0,0.0 L 5.0,-5.0 L -12.5,0.0 L 5.0,5.0 L 0.0,0.0 z "
         style="fill-rule:evenodd;stroke:#000000;stroke-width:1pt;stroke-opacity:1;fill:#000000;fill-opacity:1"
         transform="scale(0.4) rotate(180) translate(10,0)" /></marker><style
       type="text/css"
       id="style21246"><![CDATA[
    .str0 {stroke:#F1E900;stroke-width:0;stroke-linejoin:bevel}
    .str1 {stroke:#DA251D;stroke-width:111;stroke-linejoin:bevel}
    .fil1 {fill:none}
    .fil0 {fill:#1F1A17}
   ]]></style><marker
       inkscape:stockid="Arrow2Mend"
       orient="auto"
       refY="0"
       refX="0"
       id="Arrow2Mend-9"
       style="overflow:visible"
       inkscape:isstock="true"><path
         inkscape:connector-curvature="0"
         id="path8377-0"
         style="fill:#000000;fill-opacity:1;fill-rule:evenodd;stroke:#000000;stroke-width:0.625;stroke-linejoin:round;stroke-opacity:1"
         d="M 8.7185878,4.0337352 -2.2072895,0.01601326 8.7185884,-4.0017078 c -1.7454984,2.3720609 -1.7354408,5.6174519 -6e-7,8.035443 z"
         transform="scale(-0.6,-0.6)" /></marker></defs><g
     id="0"
     transform="matrix(0.0486035,0,0,0.03794801,-10.926476,47.367955)"
     style="stroke-width:450.51159668;stroke-miterlimit:4;stroke-dasharray:none"><path
       class="fil1 str1"
       d="m 260,5786 0,0 24,0 25,0 24,0 25,0 24,0 25,0 24,0 25,0 24,-1 24,0 25,0 24,0 25,0 24,-2 25,0 24,0 25,-1 24,0 25,-1 24,0 25,-1 24,0 25,-1 24,-1 25,0 24,-2 25,-1 24,-1 25,-2 24,-1 24,-2 25,-2 24,-1 25,-2 24,-3 25,-2 24,-4 25,-2 24,-3 25,-4 24,-3 25,-4 24,-5 25,-4 24,-6 25,-5 24,-6 25,-7 24,-7 23,-6 25,-7 24,-10 25,-8 24,-10 25,-10 24,-11 25,-12 24,-12 25,-14 24,-14 25,-15 24,-15 25,-18 24,-17 25,-19 24,-21 24,-21 25,-22 24,-23 25,-26 24,-25 25,-28 24,-28 25,-31 24,-32 25,-33 24,-35 25,-36 24,-38 25,-40 24,-42 25,-43 24,-44 25,-47 24,-49 25,-50 24,-53 24,-53 25,-56 24,-57 25,-60 24,-60 25,-63 24,-66 25,-66 24,-68 25,-69 24,-73 25,-72 24,-76 25,-76 24,-76 25,-80 24,-80 25,-82 24,-81 25,-84 24,-84 24,-85 25,-86 24,-87 25,-86 24,-87 25,-88 24,-87 25,-88 24,-86 25,-87 24,-85 25,-85 24,-86 25,-82 24,-83 25,-80 24,-81 25,-77 24,-76 25,-74 24,-71 24,-70 25,-68 24,-64 25,-62 24,-59 25,-56 24,-52 25,-51 24,-45 25,-43 24,-40 25,-35 24,-32 25,-28 24,-24 25,-21 24,-16 25,-12 24,-8 25,-4 23,0 24,4 25,8 24,12 25,16 24,21 25,24 24,28 25,32 24,35 25,40 24,43 24,45 25,51 24,52 25,56 24,59 25,62 24,64 25,68 24,70 25,71 24,74 25,76 24,77 25,81 24,80 25,83 24,82 25,86 24,85 25,85 24,87 24,86 25,88 24,87 25,88 24,87 25,86 24,87 25,86 24,85 25,84 24,84 25,81 24,82 25,80 24,80 25,76 24,76 25,76 24,72 25,73 24,69 24,68 25,66 24,66 25,63 24,60 25,60 24,57 25,56 24,53 25,53 24,50 25,49 24,47 25,44 24,43 25,42 24,40 25,38 24,36 25,35 24,33 24,32 25,31 24,28 25,28 24,25 25,26 24,23 25,22 24,21 25,21 24,19 25,17 24,18 25,15 24,15 25,14 24,14 25,12 24,12 25,11 24,10 24,10 25,8 24,10 25,7 23,6 25,7 24,7 25,6 24,5 25,6 24,4 25,5 24,4 24,3 25,4 24,3 25,2 24,4 25,2 24,3 25,2 24,1 25,2 24,2 25,1 24,2 25,1 24,1 25,2 24,0 25,1 24,1 25,0 24,1 24,0 25,1 24,0 25,1 24,0 25,0 24,2 25,0 24,0 25,0 24,0 25,1 24,0 25,0 24,0 25,0 24,0 25,0 24,0 25,0"
       id="path21263"
       inkscape:connector-curvature="0"
       style="fill:none;stroke:#da251d;stroke-width:450.51159668;stroke-linejoin:bevel;stroke-miterlimit:4;stroke-dasharray:none" /></g><path
     style="fill:none;fill-rule:evenodd;stroke:#000000;stroke-width:16.8129921;stroke-linecap:butt;stroke-linejoin:miter;stroke-miterlimit:4;stroke-dasharray:none;stroke-opacity:1;marker-end:url(#Arrow2Mend)"
     d="m -0.00359196,312.39539 329.89139196,0"
     id="path21816"
     inkscape:connector-curvature="0" /><path
     style="fill:none;fill-rule:evenodd;stroke:#000000;stroke-width:16.8129921;stroke-linecap:butt;stroke-linejoin:miter;stroke-miterlimit:1.89999998;stroke-dasharray:none;stroke-opacity:1;marker-end:url(#Arrow2Mend-9);image-rendering:optimizeQuality;shape-rendering:geometricPrecision;text-rendering:geometricPrecision"
     d="m 43.455865,355.53459 0,-329.891393"
     id="path21816-8"
     inkscape:connector-curvature="0" /></svg>